<?xml version="1.0" standalone="no"?>
<!DOCTYPE svg PUBLIC "-//W3C//DTD SVG 20010904//EN"
 "http://www.w3.org/TR/2001/REC-SVG-20010904/DTD/svg10.dtd">
<svg version="1.0" xmlns="http://www.w3.org/2000/svg"
 width="700.000000pt" height="700.000000pt" viewBox="0 0 700.000000 700.000000"
 preserveAspectRatio="xMidYMid meet">
<metadata>
Created by potrace 1.14, written by Peter Selinger 2001-2017
</metadata>
<g transform="translate(0.000000,700.000000) scale(0.100000,-0.100000)"
fill="#000000" stroke="none">
<path d="M3217 6834 c-1 -1 -45 -4 -97 -7 -413 -27 -859 -192 -1162 -430 -149
-116 -309 -295 -392 -437 -110 -187 -155 -401 -120 -570 16 -77 58 -191 90
-240 18 -29 22 -50 23 -120 0 -89 5 -151 22 -285 17 -135 21 -160 24 -163 1
-1 -21 -26 -49 -56 -144 -150 -188 -381 -109 -571 26 -62 97 -158 150 -202 84
-71 202 -118 306 -125 l48 -3 38 -110 c118 -348 356 -648 671 -847 89 -56 112
-90 71 -103 -34 -10 -69 -62 -92 -135 l-23 -70 -80 -1 c-90 -1 -120 -4 -186
-20 -25 -6 -52 -12 -60 -14 -8 -2 -46 -15 -83 -30 -216 -87 -417 -297 -492
-512 -46 -132 -54 -193 -55 -447 0 -132 -2 -241 -3 -243 -2 -1 -46 -7 -98 -13
-109 -12 -127 -15 -234 -36 -199 -39 -487 -132 -501 -162 -4 -9 -9 -78 -10
-152 -3 -201 0 -185 -30 -188 -14 -1 -44 -12 -66 -24 -92 -52 -122 -185 -61
-270 17 -25 49 -52 74 -64 l43 -21 2735 1 2736 1 44 30 c93 63 115 189 49 275
-27 35 -88 70 -120 70 -32 0 -30 -16 -32 187 -1 115 -4 146 -17 161 -20 24
-286 112 -429 143 -58 12 -154 29 -215 38 l-109 16 -2 240 c-1 132 -4 257 -8
277 -47 290 -222 534 -476 663 -81 41 -179 74 -245 82 -27 3 -57 7 -65 9 -8 1
-49 3 -90 3 l-75 1 -23 75 c-14 47 -32 83 -48 97 -13 13 -33 31 -44 40 -27 24
-16 43 47 79 210 121 447 362 573 584 58 102 92 179 129 289 16 48 33 92 38
96 4 4 33 10 63 13 82 8 109 15 180 50 123 61 228 184 275 322 19 57 27 200
14 254 -34 134 -66 191 -164 287 l-72 71 8 54 c24 153 33 489 16 599 -15 100
-48 237 -68 287 -7 16 -15 37 -18 48 -39 111 -186 361 -254 433 -69 72 -171
99 -297 79 l-46 -8 -36 63 c-94 161 -369 385 -613 499 -138 65 -325 121 -450
135 -22 3 -45 7 -52 9 -25 9 -387 26 -396 19z"/>
</g>
</svg>
