<?xml version="1.0" standalone="no"?>
<!DOCTYPE svg PUBLIC "-//W3C//DTD SVG 20010904//EN"
 "http://www.w3.org/TR/2001/REC-SVG-20010904/DTD/svg10.dtd">
<svg version="1.0" xmlns="http://www.w3.org/2000/svg"
 width="640.000000pt" height="640.000000pt" viewBox="0 0 640.000000 640.000000"
 preserveAspectRatio="xMidYMid meet">
<metadata>
Created by potrace 1.14, written by Peter Selinger 2001-2017
</metadata>
<g transform="translate(0.000000,640.000000) scale(0.100000,-0.100000)"
fill="#000000" stroke="none">
<path d="M2946 6250 c5 -24 4 -24 -10 -6 -9 11 -16 14 -16 8 0 -9 -5 -10 -19
-2 -14 7 -22 7 -27 -2 -4 -7 -3 -8 4 -4 8 5 10 2 6 -9 -6 -14 -8 -14 -19 1 -8
12 -14 14 -19 6 -11 -18 -26 -14 -20 6 5 16 5 16 -6 0 -12 -20 -35 -25 -24 -5
6 10 4 10 -7 0 -7 -7 -17 -13 -22 -13 -4 0 -5 6 -2 13 4 6 -1 3 -9 -7 -12 -15
-16 -16 -16 -5 0 12 -2 12 -9 0 -7 -10 -14 -12 -23 -5 -16 11 -38 11 -56 0 -7
-4 -20 -2 -30 5 -16 12 -16 12 0 -6 14 -15 20 -16 32 -5 10 7 16 8 16 2 0 -15
-20 -20 -59 -14 -27 4 -33 2 -26 -9 6 -11 5 -12 -5 -2 -10 10 -17 10 -28 1
-15 -13 -54 -19 -46 -7 10 16 -30 1 -42 -16 -13 -17 -19 -14 -15 8 1 5 -3 6
-9 2 -5 -3 -10 -14 -10 -23 0 -10 -3 -13 -8 -7 -12 17 -35 17 -28 0 3 -9 2
-13 -3 -10 -5 3 -13 1 -16 -5 -5 -8 -12 -7 -23 2 -11 9 -14 9 -9 1 6 -9 -2
-11 -27 -10 -25 2 -33 0 -29 -10 3 -7 -2 -13 -12 -13 -10 0 -13 5 -9 12 4 7 3
8 -5 4 -9 -6 -9 -11 1 -24 11 -13 11 -14 -8 -4 -12 6 -26 7 -34 2 -8 -5 -18
-6 -23 -3 -5 3 -3 -5 3 -18 l13 -24 -23 20 c-13 11 -20 14 -15 6 6 -11 4 -13
-9 -8 -10 4 -15 3 -11 -3 5 -9 0 -11 -21 -10 -3 1 -14 -9 -25 -22 -11 -13 -18
-18 -16 -13 3 6 -9 10 -26 9 -31 -1 -37 -8 -21 -22 4 -4 4 -1 -1 7 -5 10 -4
12 4 7 6 -4 9 -12 5 -17 -3 -5 -10 -7 -15 -4 -5 4 -9 1 -9 -6 0 -9 -4 -9 -15
1 -12 10 -14 8 -10 -9 2 -12 0 -19 -4 -16 -5 2 -14 -2 -21 -10 -7 -8 -17 -12
-24 -8 -21 14 -34 11 -29 -6 4 -17 -62 -69 -74 -57 -3 3 -2 6 4 6 12 0 53 34
53 45 0 4 -13 -4 -29 -17 -15 -12 -37 -28 -47 -34 -14 -8 -15 -12 -4 -19 9 -6
11 -4 5 5 -5 9 -4 11 4 6 19 -12 3 -24 -26 -19 -23 4 -25 2 -13 -7 12 -10 11
-11 -8 -7 -18 4 -21 3 -12 -8 13 -15 4 -22 -27 -20 -14 2 -20 -2 -16 -12 3 -8
2 -13 -3 -12 -23 4 -26 -2 -8 -16 18 -13 18 -14 -5 -8 -19 5 -22 3 -16 -8 7
-11 6 -12 -7 -2 -19 17 -32 4 -15 -15 10 -13 9 -14 -1 -8 -9 5 -21 0 -33 -13
-11 -12 -15 -21 -9 -21 18 0 -30 -41 -50 -43 -10 -1 -16 -5 -14 -9 3 -5 11 -5
17 -2 7 4 8 3 4 -2 -5 -5 -12 -9 -15 -9 -16 -1 -32 -17 -26 -27 4 -6 -2 -8
-17 -4 -13 3 -18 3 -11 0 17 -8 15 -34 -3 -34 -8 0 -15 -5 -15 -11 0 -5 5 -7
12 -3 7 4 8 3 4 -5 -4 -6 -12 -9 -17 -6 -8 6 -13 -8 -10 -27 0 -4 -5 -5 -13
-2 -7 3 -19 -2 -26 -11 -7 -8 -9 -15 -5 -15 5 0 0 -9 -9 -19 -10 -11 -15 -24
-12 -29 3 -6 -1 -12 -9 -16 -8 -3 -15 -13 -15 -21 0 -9 -5 -13 -11 -9 -7 4 -7
-1 1 -16 9 -17 9 -21 0 -15 -7 4 -10 1 -8 -11 2 -14 -3 -19 -18 -18 -14 1 -20
-5 -19 -17 1 -10 4 -21 7 -24 9 -9 -3 -45 -14 -45 -6 0 -8 -12 -5 -26 3 -16 0
-28 -9 -31 -8 -3 -14 -9 -14 -15 0 -5 4 -7 8 -4 4 2 8 -4 9 -14 1 -11 -2 -22
-7 -25 -5 -3 -7 -12 -3 -20 3 -8 0 -15 -7 -15 -6 0 -8 5 -5 10 3 6 1 10 -4 10
-13 0 -13 2 -1 -38 8 -30 8 -32 -7 -20 -15 12 -15 11 -5 -9 7 -12 17 -24 24
-26 8 -3 6 -6 -5 -6 -16 -1 -16 -3 -1 -28 11 -19 11 -22 1 -10 -8 9 -18 17
-22 17 -4 0 -2 -7 5 -15 7 -8 9 -22 6 -31 -6 -15 -4 -15 10 -3 16 13 16 12 5
-8 -6 -13 -7 -23 -2 -23 5 0 11 6 14 13 2 6 4 -4 5 -23 1 -74 5 -91 17 -87 6
3 12 -1 12 -9 0 -7 -4 -11 -9 -8 -4 3 -8 1 -8 -5 0 -5 6 -12 13 -14 8 -4 8 -6
-3 -6 -10 -1 -8 -6 8 -17 12 -8 22 -24 22 -35 0 -14 4 -18 13 -13 7 5 6 0 -3
-11 -9 -11 -10 -16 -2 -11 7 4 12 1 12 -9 0 -9 4 -14 9 -11 13 8 21 -47 9 -59
-8 -7 -9 -6 -4 2 4 7 3 20 -1 28 -5 9 -9 -8 -8 -44 0 -39 3 -56 10 -51 10 9
10 -80 0 -107 -2 -7 1 -15 7 -19 7 -5 8 -2 3 6 -6 9 -4 11 4 5 9 -5 10 -10 2
-18 -15 -15 -14 -30 1 -21 6 4 8 3 4 -4 -3 -5 -3 -12 1 -15 5 -2 2 -2 -4 -1
-17 4 -17 -13 0 -19 9 -4 9 -6 -1 -6 -11 -1 -10 -4 1 -16 9 -8 13 -24 10 -35
-3 -11 0 -20 6 -20 6 0 11 -5 11 -11 0 -6 -7 -8 -17 -4 -14 5 -15 3 -6 -6 6
-6 9 -18 6 -27 -4 -10 -2 -13 5 -8 7 4 12 3 12 -3 0 -5 -5 -13 -10 -16 -6 -4
-7 -12 -3 -18 11 -18 12 -38 2 -31 -14 8 -56 -40 -53 -60 2 -13 -1 -14 -10 -6
-18 14 -33 -7 -30 -41 2 -23 -1 -26 -19 -22 -18 4 -19 3 -7 -6 11 -8 12 -11 2
-11 -7 0 -11 -4 -7 -9 3 -5 1 -12 -5 -16 -6 -4 -7 -11 -4 -17 5 -8 1 -9 -10
-5 -14 6 -15 4 -5 -14 6 -12 7 -19 1 -15 -12 7 -26 -25 -15 -33 4 -3 7 -13 7
-21 -1 -8 -2 -20 -3 -27 0 -7 -7 -11 -13 -9 -7 1 -10 1 -5 -1 4 -3 4 -10 1
-15 -4 -6 -2 -8 4 -4 6 3 14 1 18 -5 4 -8 3 -9 -5 -5 -13 9 -10 -51 4 -75 8
-12 6 -12 -8 0 -10 8 -20 11 -24 7 -3 -3 -1 -6 5 -6 7 0 12 -5 12 -11 0 -5 -5
-7 -12 -3 -7 4 -8 3 -4 -5 4 -6 11 -9 16 -6 4 3 10 -4 13 -15 3 -11 2 -18 -2
-16 -10 7 -9 -38 1 -45 5 -3 10 -15 11 -27 0 -11 5 -18 9 -16 4 3 8 0 8 -6 0
-6 5 -8 13 -4 8 5 8 2 -2 -9 -9 -12 -10 -17 -2 -17 7 0 9 -5 5 -12 -5 -8 -2
-9 9 -5 10 3 17 2 17 -2 0 -5 -6 -12 -12 -14 -8 -3 -6 -6 4 -6 12 -1 16 -7 12
-18 -5 -15 -3 -15 11 2 17 20 17 20 10 -4 -5 -16 -4 -21 4 -17 7 5 10 2 9 -6
-2 -7 4 -12 12 -10 8 2 12 0 8 -3 -4 -4 -3 -16 3 -27 9 -16 13 -17 26 -6 14
11 15 10 8 -12 -7 -23 -7 -24 10 -10 11 9 16 10 11 3 -4 -9 -1 -13 10 -13 13
0 14 -3 5 -14 -9 -11 -7 -12 13 -9 13 3 27 -1 31 -8 6 -8 4 -10 -5 -4 -8 5
-11 4 -7 -3 4 -5 17 -8 29 -4 16 4 20 2 16 -10 -4 -8 -1 -15 7 -15 7 0 11 7 8
16 -2 9 1 7 8 -4 18 -29 31 -35 50 -24 12 6 19 5 21 -2 2 -6 16 -11 32 -11 15
0 30 -7 33 -15 5 -12 7 -12 14 -1 7 11 11 10 20 -2 9 -13 10 -13 6 0 -2 8 -12
14 -21 14 -19 -2 -21 12 -3 19 15 6 51 -46 40 -57 -3 -3 0 -6 8 -6 11 0 11 -2
-1 -10 -13 -8 -12 -10 3 -10 10 0 15 -5 12 -10 -4 -6 -12 -7 -18 -3 -7 4 3
-11 21 -34 17 -22 32 -45 32 -49 0 -5 -4 -3 -9 5 -6 9 -8 4 -8 -17 1 -17 5
-28 10 -25 4 2 5 9 2 14 -4 5 -4 9 -1 9 3 0 10 -10 17 -21 8 -15 8 -19 0 -15
-8 5 -8 0 0 -18 7 -14 16 -23 22 -19 6 4 8 -2 5 -15 -4 -15 -2 -22 8 -22 12 0
12 -4 4 -20 -6 -11 -7 -20 -3 -19 4 1 15 1 23 0 13 -1 13 -2 0 -11 -13 -8 -13
-10 2 -10 12 0 15 -5 11 -17 -4 -11 -3 -14 5 -9 7 4 12 1 12 -9 0 -10 -5 -13
-12 -9 -7 4 -8 3 -4 -5 6 -8 12 -9 20 -2 17 14 29 2 16 -15 -13 -15 16 -48 33
-37 7 4 6 -1 -2 -11 -12 -14 -12 -19 -1 -29 10 -10 12 -9 7 6 -4 9 -2 17 3 17
6 0 10 -9 10 -21 0 -11 4 -18 9 -14 6 3 8 -3 6 -14 -3 -15 0 -18 12 -14 11 4
14 2 9 -5 -4 -7 -2 -12 3 -12 6 0 11 -7 11 -15 0 -9 11 -20 25 -25 14 -5 25
-12 25 -15 0 -4 -4 -3 -10 0 -6 3 -7 -1 -4 -10 5 -12 10 -13 20 -4 10 8 12 6
9 -10 -3 -15 1 -21 14 -21 21 0 44 -23 34 -33 -3 -4 2 -9 11 -13 9 -3 16 -13
16 -21 0 -12 3 -13 13 -4 19 15 30 1 14 -17 -10 -13 -9 -15 11 -9 18 4 22 2
18 -9 -3 -8 -1 -14 5 -14 6 0 7 -6 3 -13 -5 -8 -2 -7 9 2 10 8 20 11 24 7 3
-3 1 -6 -6 -6 -9 0 -9 -4 1 -14 7 -8 16 -12 21 -9 4 2 7 -3 7 -12 0 -9 4 -14
9 -10 5 3 15 -1 23 -8 7 -8 26 -17 41 -21 15 -3 27 -12 27 -18 0 -9 -3 -9 -12
0 -7 7 -16 12 -21 12 -5 0 1 -9 14 -19 15 -12 28 -16 33 -10 6 5 15 9 20 9 7
0 6 -3 -1 -8 -8 -5 -7 -12 4 -27 12 -16 14 -16 10 -3 -3 10 -1 20 5 24 6 4 8
3 4 -4 -3 -6 1 -17 9 -25 18 -19 20 -41 3 -31 -10 6 -10 4 0 -8 10 -13 10 -18
1 -24 -8 -5 -10 -3 -4 7 4 8 -2 3 -15 -9 -18 -19 -24 -21 -31 -10 -5 7 -9 8
-9 3 0 -6 6 -17 13 -24 6 -7 8 -12 2 -11 -26 5 -36 -1 -30 -19 7 -22 -4 -53
-15 -46 -5 3 -11 1 -14 -4 -4 -5 -1 -13 5 -17 8 -5 9 -3 4 6 -5 8 -4 11 3 6 6
-4 9 -13 6 -21 -4 -8 -10 -12 -15 -9 -5 3 -9 -4 -9 -15 0 -14 -5 -19 -15 -15
-8 4 -12 11 -8 17 3 6 1 7 -6 3 -6 -4 -9 -11 -6 -16 3 -5 1 -12 -5 -15 -6 -4
-10 -3 -9 2 3 20 -2 25 -16 13 -8 -7 -15 -8 -15 -3 0 5 -11 9 -24 9 -14 0 -23
-3 -20 -7 7 -13 -28 -20 -42 -8 -8 6 -14 8 -14 3 0 -5 -4 -3 -9 4 -7 11 -9 10
-14 -3 -5 -11 -3 -14 6 -9 9 5 8 3 -1 -7 -11 -12 -14 -12 -22 1 -7 10 -10 11
-10 3 0 -7 -5 -13 -11 -13 -5 0 -7 5 -3 11 4 7 1 10 -7 7 -8 -3 -13 -11 -12
-17 4 -15 -14 -14 -20 2 -4 9 -6 8 -6 -2 -1 -11 -4 -11 -16 -1 -12 10 -16 9
-21 -4 -3 -9 -11 -13 -18 -9 -7 5 -7 2 1 -8 10 -12 8 -15 -7 -15 -10 0 -17 3
-15 6 7 11 -29 8 -43 -3 -8 -6 -9 -13 -2 -22 7 -9 2 -11 -21 -10 -18 1 -33 -4
-39 -14 -5 -9 -10 -12 -10 -7 0 6 -9 0 -21 -13 -12 -13 -27 -20 -36 -16 -13 4
-14 3 -3 -10 11 -13 10 -14 -5 -8 -14 5 -17 3 -12 -10 3 -9 3 -16 -1 -16 -4 1
-16 1 -27 0 -17 -1 -18 -3 -5 -12 12 -9 11 -10 -7 -6 -17 4 -21 1 -18 -15 4
-17 2 -18 -11 -7 -12 10 -15 10 -12 -1 2 -7 -3 -15 -11 -18 -9 -3 -11 0 -6 9
5 8 4 10 0 6 -16 -14 -14 -36 3 -30 10 3 4 -4 -12 -15 -17 -12 -34 -18 -39
-15 -6 3 -7 1 -3 -5 4 -7 2 -12 -4 -12 -6 0 -8 -5 -5 -10 3 -6 1 -10 -6 -10
-8 0 -8 -4 1 -15 11 -13 10 -14 -4 -9 -11 4 -16 1 -16 -10 0 -9 -4 -16 -9 -16
-5 0 -11 -10 -13 -22 -2 -16 -9 -22 -23 -20 -20 2 -20 2 -1 -9 19 -11 18 -13
-10 -37 -16 -13 -23 -21 -15 -17 9 5 12 3 9 -6 -3 -8 -11 -13 -17 -11 -8 2 -9
-3 -2 -16 5 -10 6 -24 1 -32 -5 -8 -7 -17 -4 -22 3 -4 -4 -13 -15 -20 -18 -11
-18 -13 -3 -25 16 -12 16 -13 -1 -7 -10 4 -17 3 -15 -2 1 -5 -3 -20 -10 -34
-13 -24 -13 -24 4 -5 16 19 16 19 9 -10 -3 -16 -11 -31 -16 -33 -5 -2 -6 -15
-3 -28 4 -16 2 -24 -7 -24 -9 -1 -8 -4 4 -11 9 -6 15 -14 12 -19 -3 -5 -1 -19
6 -31 8 -15 8 -19 0 -15 -13 9 -28 -23 -15 -33 13 -9 17 -34 4 -26 -17 11 -11
-7 8 -21 14 -12 14 -13 1 -8 -19 6 -34 -22 -17 -32 7 -4 8 -3 4 4 -4 7 -3 12
3 12 17 0 7 -54 -14 -73 -11 -9 -15 -17 -10 -16 22 3 32 -2 32 -16 0 -8 -4
-12 -9 -9 -16 10 -8 -9 9 -22 15 -12 15 -13 2 -8 -23 7 -32 -22 -13 -41 9 -8
11 -15 5 -15 -6 0 -11 -7 -11 -15 0 -16 -20 -16 -32 0 -4 6 -8 2 -8 -8 0 -12
-4 -15 -12 -11 -11 7 -56 9 -75 4 -5 -1 -12 -3 -18 -5 -37 -9 -54 -19 -48 -29
3 -6 -3 -3 -14 7 -19 17 -22 17 -37 2 -9 -9 -16 -12 -16 -6 0 6 -5 11 -11 11
-5 0 -7 -6 -3 -12 5 -8 0 -7 -11 2 -11 9 -16 10 -11 3 5 -9 0 -13 -13 -13 -12
0 -21 5 -21 12 0 6 -3 8 -6 5 -4 -4 -1 -14 7 -24 10 -12 10 -15 1 -9 -7 4 -19
3 -27 -4 -10 -8 -15 -8 -21 1 -4 7 -3 9 4 5 6 -3 13 -2 16 3 7 11 -13 9 -33
-3 -8 -5 -16 -3 -22 5 -7 11 -9 11 -9 -3 0 -16 -22 -19 -36 -5 -9 8 -34 -11
-34 -26 0 -6 6 -3 13 7 12 16 14 16 26 2 12 -14 12 -16 -2 -11 -8 4 -18 1 -22
-4 -3 -6 -11 -9 -16 -5 -6 3 -21 7 -35 9 -19 2 -22 -1 -14 -11 9 -9 7 -12 -7
-9 -10 1 -17 9 -15 16 1 8 -8 3 -20 -11 -13 -14 -33 -25 -45 -24 -12 1 -20 -2
-18 -6 3 -4 -2 -10 -10 -13 -10 -4 -12 -1 -9 11 2 9 -1 7 -7 -5 -7 -13 -16
-23 -21 -23 -5 0 -6 5 -2 11 3 6 -5 4 -18 -5 -14 -9 -27 -14 -30 -11 -2 3 -13
-5 -24 -17 -10 -12 -13 -18 -6 -14 6 4 12 2 12 -4 0 -6 5 -8 12 -4 7 4 8 3 4
-5 -4 -6 -12 -9 -17 -6 -5 4 -9 1 -9 -4 0 -21 -2 -26 -13 -40 -9 -12 -9 -13 0
-7 8 4 13 2 13 -4 0 -6 5 -8 11 -4 8 4 7 9 -2 15 -8 5 -9 9 -3 9 6 0 14 -3 17
-7 9 -9 -13 -34 -24 -27 -5 3 -9 0 -9 -5 0 -6 5 -11 12 -11 9 0 9 -3 1 -11
-13 -13 -6 -42 7 -34 5 3 11 1 14 -4 7 -11 -13 -9 -31 2 -9 6 -11 3 -7 -7 3
-9 10 -16 14 -16 4 0 5 -11 2 -25 -3 -16 0 -25 9 -25 8 0 5 -6 -7 -16 -14 -12
-15 -14 -3 -11 13 4 15 1 11 -15 -4 -15 -7 -17 -14 -6 -7 9 -9 7 -5 -8 4 -18
0 -20 -34 -19 -31 1 -36 -1 -28 -12 9 -10 6 -13 -12 -14 -13 -1 -28 -1 -33 0
-5 1 -3 -6 5 -15 9 -11 9 -15 2 -10 -7 4 -21 2 -30 -4 -16 -10 -16 -11 -1 -6
12 3 15 1 11 -9 -3 -8 -10 -12 -16 -8 -7 4 -8 0 -4 -11 6 -14 3 -17 -10 -12
-10 4 -14 4 -11 0 4 -4 3 -15 -3 -25 -7 -14 -6 -19 3 -19 10 0 10 -2 -1 -9
-11 -7 -11 -9 0 -14 9 -4 10 -6 2 -6 -7 -1 -10 -8 -7 -16 4 -8 9 -13 13 -10 4
2 8 -3 8 -11 0 -8 -6 -13 -14 -10 -11 4 -11 1 -3 -14 6 -11 13 -20 16 -20 3 0
2 4 -1 10 -4 6 1 7 11 3 15 -6 15 -7 -2 -21 -16 -13 -17 -14 -2 -9 16 6 23 -6
20 -34 -1 -3 5 -6 13 -6 8 0 11 5 8 10 -3 6 -1 7 5 3 7 -4 12 -13 12 -21 0 -8
4 -17 10 -20 6 -4 7 1 3 11 -5 13 -3 15 13 6 10 -5 27 -8 37 -7 9 2 15 -1 11
-6 -3 -5 -9 -7 -14 -4 -4 3 -14 -3 -21 -13 -12 -15 -12 -16 1 -6 8 6 29 10 47
9 18 -1 30 1 28 6 -3 4 0 11 6 15 8 4 9 3 5 -4 -4 -7 -2 -12 4 -12 6 0 8 -4 5
-10 -3 -6 1 -7 9 -4 9 3 13 10 10 15 -3 5 2 6 10 3 9 -3 13 -11 10 -18 -3 -6
3 -2 13 10 19 21 50 26 46 7 -1 -6 4 -14 13 -17 8 -3 13 -2 10 2 -2 4 6 12 19
18 19 9 25 9 29 -2 3 -8 0 -11 -10 -7 -7 3 -14 1 -14 -5 0 -6 8 -9 18 -8 9 2
17 8 17 14 0 6 4 14 9 19 5 5 6 3 2 -4 -4 -7 -2 -13 4 -13 6 0 8 -6 5 -12 -4
-7 2 -2 13 11 14 17 21 20 27 11 6 -9 10 -9 17 1 8 11 9 10 5 -3 -3 -9 1 -19
9 -22 9 -3 12 -1 9 4 -3 6 0 10 9 10 8 0 16 5 18 11 2 7 9 5 17 -5 12 -14 12
-16 -3 -10 -9 3 -16 2 -16 -3 0 -5 11 -9 24 -9 14 0 22 5 19 12 -2 7 1 15 7
19 6 3 9 1 8 -6 -2 -6 3 -14 11 -17 8 -2 11 0 7 6 -3 6 -1 14 5 18 7 4 9 3 5
-4 -3 -6 -2 -13 4 -17 5 -3 10 1 10 10 0 9 5 13 10 10 6 -4 8 -10 5 -15 -3 -4
2 -11 11 -14 8 -3 13 -2 10 2 -2 4 7 12 20 19 14 6 24 7 24 1 0 -5 5 -6 10 -3
6 3 10 1 10 -5 0 -7 -8 -9 -20 -5 -11 3 -20 2 -20 -3 0 -10 91 -9 109 2 7 5
21 0 34 -11 19 -15 20 -16 8 0 -12 15 -11 17 13 17 15 0 25 -4 22 -9 -4 -5 2
-8 11 -7 18 3 21 21 4 21 -5 0 -12 3 -16 7 -4 3 0 5 9 4 8 -1 19 -5 22 -9 4
-4 14 -1 22 6 13 9 14 9 8 0 -5 -9 0 -13 14 -13 12 0 19 4 16 9 -7 10 13 9 31
-2 6 -4 14 -1 16 5 4 10 6 10 6 0 1 -10 6 -10 24 -2 20 10 20 10 5 -3 -23 -18
-23 -23 1 -23 11 0 17 4 15 8 -3 4 2 8 10 8 9 0 16 -4 16 -8 0 -5 7 -9 16 -9
12 0 11 4 -6 17 -17 13 -18 17 -6 17 9 0 16 -4 16 -9 0 -4 8 -8 18 -8 10 0 23
-5 29 -11 8 -8 13 -7 18 2 5 7 4 10 -3 5 -6 -3 -13 -2 -16 3 -4 5 -2 12 3 15
5 4 12 2 16 -3 3 -6 12 -8 20 -4 8 3 15 0 15 -7 0 -6 -4 -8 -10 -5 -5 3 -10 2
-10 -3 0 -11 71 -9 89 2 7 5 22 0 34 -11 19 -15 20 -16 8 0 -12 15 -10 17 20
17 26 0 30 -3 19 -10 -8 -5 -11 -10 -7 -10 5 0 23 10 40 22 28 19 30 20 15 2
-16 -19 -16 -20 2 -20 10 0 17 3 15 6 -2 3 8 10 21 17 13 6 24 8 24 4 0 -4 18
-12 40 -17 22 -6 37 -7 34 -3 -3 5 2 9 10 9 9 0 16 5 16 12 0 9 3 9 12 0 16
-16 52 -16 42 0 -4 7 -3 8 5 4 6 -4 9 -11 6 -16 -3 -5 -1 -11 4 -14 5 -4 13
-1 17 5 4 8 3 9 -4 5 -8 -5 -10 -1 -5 10 4 10 8 13 10 7 3 -7 11 -9 19 -6 8 3
14 0 14 -7 0 -6 -4 -8 -10 -5 -5 3 -10 2 -10 -3 0 -11 71 -9 89 2 7 5 22 0 34
-11 19 -15 20 -16 8 0 -12 15 -11 17 13 17 15 0 25 -4 22 -9 -4 -5 1 -8 9 -7
16 2 21 21 6 21 -5 0 -12 3 -16 7 -4 3 0 5 9 4 8 -1 19 -5 22 -9 4 -4 14 -1
22 6 13 9 14 9 8 0 -5 -9 0 -13 14 -13 12 0 19 4 16 9 -7 10 13 9 31 -2 6 -4
14 -1 16 5 4 10 6 10 6 0 1 -10 6 -10 24 -2 20 10 20 10 5 -3 -23 -18 -23 -23
1 -23 11 0 17 4 15 8 -3 4 2 8 10 8 9 0 16 -4 16 -8 0 -5 7 -9 16 -9 12 0 11
4 -6 17 -17 13 -18 17 -6 17 9 0 16 -4 16 -9 0 -4 8 -8 18 -8 10 0 23 -5 29
-11 8 -8 13 -7 18 2 5 7 4 10 -3 5 -6 -3 -13 -2 -16 3 -4 5 -2 12 3 15 5 4 12
2 16 -3 3 -6 12 -8 20 -4 8 3 15 0 15 -7 0 -6 -4 -8 -10 -5 -5 3 -10 2 -10 -3
0 -11 71 -9 89 2 7 5 22 0 34 -11 19 -15 20 -16 8 0 -12 15 -10 17 20 17 26 0
30 -3 19 -10 -8 -5 -11 -10 -7 -10 5 0 23 10 40 22 28 19 30 20 15 2 -16 -19
-16 -20 2 -20 10 0 17 3 15 6 -2 3 8 10 21 17 13 6 24 8 24 4 0 -4 18 -12 40
-17 22 -6 37 -7 34 -3 -3 5 2 9 10 9 9 0 16 5 16 12 0 9 3 9 12 0 15 -15 45
-15 50 0 3 7 7 5 11 -6 4 -10 3 -15 -3 -11 -6 3 -10 1 -10 -5 0 -6 11 -8 27
-6 15 3 33 0 40 -6 11 -8 12 -7 7 6 -5 14 -2 15 18 7 16 -6 29 -5 40 3 18 13
81 9 73 -4 -3 -5 1 -7 7 -6 15 2 23 21 9 21 -5 0 -12 3 -16 7 -4 3 0 5 9 4 8
-1 19 -5 22 -9 4 -4 14 -1 22 6 13 9 14 9 8 0 -5 -9 0 -13 14 -13 12 0 19 4
16 9 -7 10 13 9 31 -2 6 -4 14 -1 16 5 4 10 6 10 6 0 1 -10 6 -10 24 -2 20 10
20 10 5 -3 -23 -18 -23 -23 1 -23 11 0 17 4 15 8 -3 4 2 8 10 8 9 0 16 -4 16
-8 0 -5 7 -9 16 -9 12 0 11 4 -6 17 -17 13 -18 17 -6 17 9 0 16 -4 16 -9 0 -4
8 -8 18 -8 10 0 23 -5 29 -11 8 -8 13 -7 18 2 5 7 4 10 -3 5 -6 -3 -13 -2 -16
3 -4 5 -2 12 3 15 5 4 12 2 16 -3 3 -6 12 -8 20 -4 8 3 15 0 15 -7 0 -6 -4 -8
-10 -5 -5 3 -10 2 -10 -3 0 -11 71 -9 89 2 7 5 22 0 34 -11 19 -15 20 -16 8 0
-12 15 -11 17 13 17 18 0 25 -4 20 -12 -4 -7 -3 -8 5 -4 8 6 9 12 2 20 -8 9
-7 13 4 13 8 0 12 -4 9 -9 -3 -4 0 -8 6 -8 6 0 8 -6 5 -12 -4 -7 2 -2 13 11
14 17 21 20 27 11 6 -9 10 -9 17 1 8 11 9 10 5 -3 -3 -9 1 -19 9 -22 9 -3 12
-1 9 4 -3 6 0 10 9 10 8 0 16 5 18 11 2 7 9 5 17 -5 12 -14 12 -16 -3 -10 -9
3 -16 2 -16 -3 0 -5 11 -9 24 -9 14 0 22 5 19 12 -2 7 1 15 7 19 6 3 9 1 8 -6
-2 -6 3 -14 11 -17 8 -2 11 0 7 6 -3 6 -1 14 5 18 7 4 9 3 5 -4 -3 -6 -2 -13
4 -17 5 -3 10 1 10 10 0 9 5 13 10 10 6 -4 8 -10 5 -15 -3 -4 2 -11 11 -14 8
-3 13 -2 10 2 -2 4 6 12 19 18 19 9 25 9 29 -2 3 -8 0 -11 -10 -7 -7 3 -14 1
-14 -5 0 -6 8 -9 18 -8 9 2 17 8 17 14 0 6 4 14 9 19 5 5 6 3 2 -5 -4 -6 -2
-12 4 -12 6 0 8 -6 5 -12 -4 -7 2 -2 13 11 14 17 21 20 27 11 6 -9 10 -9 17 1
8 11 9 10 5 -3 -3 -9 1 -19 9 -22 9 -3 12 -1 9 4 -3 6 0 10 9 10 8 0 16 5 18
11 2 7 9 5 17 -5 12 -14 12 -16 -3 -10 -9 3 -16 2 -16 -3 0 -5 11 -9 24 -9 14
0 22 5 19 12 -2 7 1 15 7 19 6 3 9 1 8 -6 -2 -6 3 -14 11 -17 8 -2 11 0 7 6
-3 6 -1 14 5 18 7 4 9 3 5 -4 -3 -6 -2 -13 4 -17 5 -3 10 1 10 10 0 9 5 13 10
10 6 -4 8 -10 5 -15 -3 -4 2 -11 11 -14 8 -3 13 -2 10 2 -2 4 6 12 19 18 19 9
25 9 29 -2 3 -8 0 -11 -10 -7 -7 3 -14 1 -14 -5 0 -6 8 -9 18 -8 9 2 17 8 17
14 0 6 4 14 9 19 5 5 6 3 2 -4 -4 -7 -2 -13 4 -13 6 0 8 -6 5 -12 -4 -7 2 -2
13 11 14 17 21 20 27 11 6 -9 10 -9 17 1 8 11 9 10 5 -3 -3 -9 1 -19 9 -22 9
-3 12 -1 9 4 -3 6 0 10 9 10 8 0 16 5 18 11 2 7 9 5 17 -5 12 -14 12 -16 -3
-10 -9 3 -16 2 -16 -3 0 -5 11 -9 24 -9 14 0 22 5 19 12 -2 7 1 15 7 19 6 3 9
1 8 -6 -2 -6 3 -14 11 -17 8 -2 11 0 7 6 -3 6 -1 14 5 18 7 4 9 3 5 -4 -3 -6
-2 -13 4 -17 5 -3 10 1 10 10 0 9 5 13 10 10 6 -4 8 -10 5 -15 -3 -4 2 -11 11
-14 8 -3 13 -2 10 2 -2 4 6 12 19 18 19 9 25 9 29 -2 3 -8 0 -11 -10 -7 -7 3
-14 1 -14 -5 0 -6 8 -9 18 -8 9 2 17 8 17 14 0 6 4 14 9 19 5 5 6 3 2 -4 -4
-7 -2 -13 4 -13 6 0 8 -6 5 -12 -4 -7 2 -2 13 11 14 17 21 20 27 11 6 -9 10
-9 17 1 8 11 9 10 5 -3 -3 -9 1 -19 9 -22 9 -3 12 -1 9 4 -3 6 0 10 9 10 8 0
16 5 18 11 2 7 9 5 17 -5 12 -14 12 -16 -3 -10 -9 3 -16 2 -16 -3 0 -5 11 -9
24 -9 14 0 22 5 19 12 -2 7 1 15 7 19 6 3 9 1 8 -6 -2 -6 3 -14 11 -17 8 -2
11 0 7 6 -3 6 -1 14 5 18 7 4 9 3 5 -4 -3 -6 -2 -13 4 -17 5 -3 10 1 10 10 0
9 5 13 10 10 6 -4 8 -10 5 -15 -3 -4 2 -11 11 -14 8 -3 13 -2 10 2 -2 4 6 12
19 18 19 9 25 9 29 -2 3 -8 0 -11 -10 -7 -7 3 -14 1 -14 -5 0 -6 8 -9 18 -8 9
2 17 8 17 14 0 6 4 14 9 19 5 5 6 3 2 -4 -4 -7 -2 -13 4 -13 6 0 8 -6 5 -12
-4 -7 2 -2 13 11 14 17 21 20 27 11 6 -9 10 -9 17 1 8 11 9 10 5 -3 -3 -9 1
-19 9 -22 9 -3 12 -1 9 4 -3 6 0 10 9 10 8 0 16 5 18 11 2 7 9 5 17 -5 12 -14
12 -16 -3 -10 -9 3 -16 2 -16 -3 0 -5 11 -9 24 -9 14 0 22 5 19 12 -2 7 1 15
7 19 6 3 9 1 8 -6 -2 -6 3 -14 11 -17 8 -2 11 0 7 6 -3 6 -1 14 5 18 7 4 9 3
5 -4 -3 -6 -2 -13 4 -17 5 -3 10 1 10 10 0 9 5 13 10 10 6 -4 8 -10 5 -15 -3
-4 2 -11 11 -14 8 -3 13 -2 10 2 -2 4 6 12 19 18 19 9 25 9 29 -2 3 -8 0 -11
-10 -7 -7 3 -14 1 -14 -5 0 -6 8 -9 18 -8 9 2 17 8 17 14 0 6 4 14 9 19 5 5 6
3 2 -4 -4 -7 -2 -13 4 -13 6 0 8 -6 5 -12 -4 -7 2 -2 13 11 14 17 21 20 27 11
6 -9 10 -9 17 1 8 11 9 10 5 -3 -3 -9 1 -19 9 -22 9 -3 12 -1 9 4 -3 6 0 10 9
10 8 0 16 5 18 11 2 7 9 5 17 -5 12 -14 12 -16 -3 -10 -9 3 -16 2 -16 -3 0 -5
11 -9 24 -9 21 0 23 3 14 20 -10 18 -9 18 17 -2 30 -24 47 -21 39 6 -3 9 1 7
8 -5 13 -22 14 -22 26 -3 9 14 20 19 37 16 14 -3 28 0 31 6 4 6 2 8 -3 5 -6
-4 -13 0 -16 8 -4 9 -1 12 9 8 19 -7 70 42 53 53 -8 5 -9 3 -4 -6 5 -9 4 -11
-4 -6 -6 4 -9 12 -5 17 3 5 10 6 16 3 8 -5 9 -1 4 11 -5 14 -4 15 6 7 11 -8
13 0 13 43 0 29 -3 51 -6 49 -4 -2 -10 3 -13 12 -4 9 -2 13 5 8 8 -4 7 0 0 15
-7 11 -14 21 -17 21 -3 0 -3 -4 1 -9 3 -5 1 -12 -4 -15 -11 -7 -9 13 3 33 6 9
5 12 -2 7 -6 -3 -13 3 -17 14 -3 11 -11 20 -18 20 -8 0 -8 -3 1 -12 7 -7 12
-16 12 -20 0 -5 -13 5 -29 21 -19 20 -31 26 -35 18 -2 -7 -5 -1 -5 13 -1 16
-4 20 -9 13 -4 -7 -17 -11 -29 -10 -14 1 -19 5 -14 12 11 14 10 46 -1 39 -13
-8 -6 29 7 38 6 4 -1 8 -15 8 -19 0 -22 2 -10 9 8 6 17 8 20 6 3 -2 6 10 5 26
0 33 -9 37 -24 12 -16 -27 -13 -9 3 22 9 17 16 22 19 13 3 -7 4 1 2 17 -2 17
-8 29 -15 27 -6 -1 -9 2 -5 8 3 6 11 8 16 5 5 -4 9 -1 9 4 0 6 -5 11 -12 11
-9 0 -9 3 0 12 7 7 12 17 12 23 0 5 -5 3 -10 -5 -8 -12 -10 -10 -11 10 -1 14
-1 29 0 34 1 5 -5 6 -13 3 -9 -4 -18 -2 -22 4 -4 7 -10 7 -18 0 -14 -12 -49
22 -38 35 4 5 -1 2 -10 -5 -10 -7 -18 -9 -18 -3 0 5 -7 13 -16 16 -8 3 -12 2
-9 -4 10 -16 -5 -11 -32 10 -31 24 -51 26 -32 3 13 -15 12 -15 -8 -2 -13 8
-23 16 -23 20 0 3 -7 6 -15 6 -8 0 -15 -5 -15 -11 0 -6 -4 -5 -9 3 -8 13 -12
13 -28 1 -10 -8 -15 -10 -11 -6 4 5 2 16 -5 24 -10 13 -9 14 3 7 19 -12 50
-14 55 -4 3 4 -6 6 -20 4 -14 -1 -27 1 -30 5 -2 3 -20 6 -40 5 -19 0 -35 4
-35 10 0 5 -8 1 -17 -10 -13 -16 -15 -17 -10 -2 4 9 2 17 -4 17 -6 0 -7 5 -3
12 4 7 3 8 -4 4 -6 -4 -9 -14 -6 -24 5 -13 4 -14 -4 -4 -5 8 -12 13 -16 13
-20 -3 -26 0 -20 12 4 6 4 9 -1 5 -4 -4 -14 -3 -22 4 -11 9 -12 7 -6 -8 6 -16
4 -17 -9 -7 -8 7 -18 10 -21 6 -4 -3 -7 0 -7 8 0 11 -2 11 -10 -1 -5 -8 -10
-10 -10 -5 0 6 -12 10 -27 9 -16 0 -34 7 -44 19 -13 17 -16 17 -16 4 0 -9 4
-14 9 -11 4 3 8 1 8 -5 0 -5 -9 -9 -20 -8 -11 1 -20 5 -20 9 0 4 -7 5 -15 2
-8 -4 -15 -1 -15 4 0 6 9 9 20 7 11 -2 18 0 15 6 -4 5 -12 9 -19 9 -8 0 -20 8
-27 17 -10 11 -10 14 -1 9 7 -4 12 -1 12 9 0 10 -5 13 -12 9 -7 -5 -8 -3 -4 5
5 7 15 10 25 6 13 -5 14 -4 3 6 -18 19 -15 32 6 25 16 -6 16 -5 0 7 -17 14
-19 32 -5 54 5 8 4 13 -2 13 -10 0 -15 -14 -12 -32 0 -5 -4 -8 -9 -8 -12 0
-13 10 0 30 6 9 5 20 -3 30 -10 13 -10 13 5 2 12 -10 18 -10 24 -1 4 8 3 9 -4
5 -13 -8 -12 20 1 42 5 7 4 12 -2 12 -10 0 -15 -14 -12 -32 0 -5 -4 -8 -9 -8
-12 0 -13 10 0 30 6 9 5 20 -3 29 -10 12 -9 13 2 6 11 -6 13 -3 9 13 -4 16 -2
22 10 22 8 0 12 3 8 7 -4 5 -13 8 -19 8 -5 0 -12 6 -14 13 -3 6 0 12 7 12 6 0
8 -4 5 -10 -3 -6 1 -7 10 -4 14 6 14 8 -1 19 -18 13 -30 50 -13 39 5 -3 7 -10
4 -15 -4 -5 1 -9 11 -9 14 0 14 2 3 16 -10 13 -10 17 2 26 11 8 11 9 -3 4 -23
-7 -23 10 0 24 15 10 15 10 -3 5 -16 -4 -21 0 -21 14 0 11 5 17 10 14 5 -4 6
-1 1 7 -5 8 -9 29 -10 47 -1 19 -7 38 -14 43 -11 6 -11 9 0 14 8 3 4 4 -8 2
-15 -3 -20 0 -16 10 3 8 10 11 17 8 6 -3 4 1 -6 8 -12 11 -14 18 -6 33 9 15 8
17 -8 11 -10 -4 -15 -4 -12 0 4 3 1 18 -6 33 -7 14 -12 33 -11 42 2 12 -3 15
-19 12 -12 -3 -17 -1 -11 4 6 4 11 15 13 23 3 12 1 13 -9 2 -7 -6 -18 -12 -23
-12 -6 0 -4 5 4 11 11 8 12 12 3 16 -7 2 -13 12 -13 20 0 9 -3 13 -7 10 -12
-12 -32 27 -21 40 14 17 -4 17 -21 1 -10 -11 -11 -10 -6 4 4 11 -1 28 -14 44
-12 15 -21 22 -21 17 0 -6 7 -16 15 -23 8 -7 15 -16 15 -21 0 -5 -9 0 -20 11
-11 11 -20 24 -20 29 0 5 -6 12 -12 15 -10 5 -10 7 0 12 6 3 12 10 12 16 0 6
-10 3 -22 -8 -13 -10 -20 -15 -16 -10 11 13 -11 36 -27 29 -10 -3 -13 1 -10
17 3 17 1 19 -9 11 -10 -9 -17 -7 -27 6 -13 17 -13 17 6 3 18 -14 19 -13 8 1
-7 9 -11 18 -9 20 2 2 -10 4 -27 3 -21 0 -38 7 -49 20 -16 18 -19 19 -29 6 -8
-12 -9 -10 -4 8 6 21 5 23 -12 13 -15 -8 -20 -7 -20 4 0 8 4 12 8 9 4 -2 10 0
13 5 7 11 -13 9 -31 -2 -8 -5 -13 -3 -13 4 0 8 -5 7 -17 -2 -14 -12 -16 -12
-11 2 3 9 2 22 -4 30 -8 11 -9 10 -4 -3 3 -10 1 -18 -3 -18 -5 0 -11 5 -13 10
-2 6 -19 11 -38 13 -19 1 -43 11 -52 21 -10 10 -18 15 -18 10 0 -6 6 -16 13
-23 10 -11 8 -11 -10 -2 -12 6 -28 8 -36 5 -8 -3 -21 1 -28 8 -8 8 -37 14 -69
15 -109 1 -107 1 -84 17 18 14 18 15 2 21 -10 4 -18 14 -18 22 0 8 5 11 11 7
6 -3 4 5 -5 18 -9 14 -13 28 -9 33 5 4 2 5 -5 1 -7 -4 -9 -12 -6 -18 4 -6 2
-8 -4 -5 -5 4 -8 15 -5 26 3 12 -2 20 -16 24 -12 3 -21 13 -21 22 0 15 -2 16
-17 4 -11 -10 -14 -10 -9 -1 4 7 2 12 -6 12 -9 0 -9 3 2 10 12 8 12 10 1 10
-8 0 4 12 25 26 42 29 65 55 58 66 -2 4 8 5 22 2 24 -4 26 -2 21 18 -6 22 -5
22 8 4 12 -15 15 -16 15 -5 0 9 12 26 27 40 14 13 23 18 19 12 -4 -7 -2 -13 3
-13 11 0 15 12 12 40 -1 8 5 4 12 -9 8 -14 17 -19 21 -13 3 6 1 12 -5 14 -7 2
-4 10 7 18 16 13 17 13 10 0 -4 -8 0 -6 9 5 9 11 20 19 25 18 5 -2 7 4 3 13
-3 8 -2 14 3 13 21 -5 42 14 39 33 -4 17 -2 18 12 6 12 -9 15 -9 9 0 -4 6 -3
12 2 12 5 0 12 9 15 20 3 11 11 19 19 18 7 -2 12 5 12 14 -1 10 2 15 7 12 5
-3 9 0 9 6 0 6 5 8 12 4 8 -5 9 -2 5 9 -5 13 -1 17 15 17 21 0 21 0 2 15 -18
15 -18 15 0 8 15 -5 17 -3 11 7 -6 10 -4 12 9 7 10 -4 15 -3 11 3 -3 6 -1 10
4 10 6 0 11 4 11 10 0 5 -8 7 -17 5 -10 -3 -4 1 14 10 17 8 35 20 39 27 6 9 3
9 -9 -1 -12 -9 -17 -10 -17 -2 0 6 7 14 16 18 8 3 13 12 9 21 -5 13 -3 13 11
1 16 -13 16 -12 6 7 -10 19 -9 21 13 18 14 -1 23 2 19 7 -3 5 -9 7 -13 5 -4
-3 -8 1 -8 9 0 8 5 11 10 8 7 -4 8 1 3 12 -5 15 -4 16 8 6 11 -9 16 -9 22 0 4
8 3 9 -4 5 -7 -4 -12 -1 -12 9 0 11 5 15 14 12 11 -5 13 0 6 22 -6 23 -5 28 8
27 11 -1 16 8 17 31 0 18 5 36 9 40 5 4 6 2 2 -4 -4 -7 -2 -13 3 -13 6 0 12 3
12 8 1 4 3 20 5 37 2 16 8 31 14 33 5 2 15 13 21 25 9 18 9 20 -2 10 -22 -21
-31 -14 -11 8 12 12 18 29 15 40 -3 11 0 19 6 19 7 0 9 -5 5 -12 -4 -7 -3 -8
5 -4 9 6 9 11 0 22 -15 18 11 20 30 2 10 -11 12 -10 9 1 -2 7 3 16 11 19 9 3
11 0 6 -9 -7 -12 -5 -12 6 -1 12 11 12 14 -1 22 -9 6 -10 10 -3 10 7 0 22 -10
34 -22 12 -13 19 -17 15 -10 -4 7 -2 20 5 28 10 13 14 12 32 -3 12 -11 17 -12
12 -4 -6 11 -3 13 14 8 18 -4 20 -3 11 8 -8 10 -8 15 1 21 7 4 9 3 6 -3 -4 -6
2 -13 14 -16 17 -5 18 -3 8 9 -10 12 -9 13 6 8 13 -5 16 -4 11 4 -5 8 -2 10
10 5 13 -5 15 -2 10 18 l-7 24 15 -25 c10 -17 15 -20 16 -9 0 9 10 24 22 35
22 19 23 19 8 -1 -14 -19 -14 -19 3 -6 9 7 17 21 18 30 0 10 2 11 6 4 2 -7 9
-13 15 -13 6 0 8 7 4 15 -4 10 1 15 14 15 12 0 17 5 14 14 -3 7 2 16 11 20 9
3 13 10 10 16 -3 5 0 7 8 4 8 -3 18 0 23 7 5 8 3 10 -7 4 -11 -6 -11 -5 -2 5
6 7 9 19 6 27 -4 9 3 16 17 20 15 4 20 11 17 25 -3 10 1 24 8 32 8 7 11 16 8
20 -4 3 -2 6 4 6 14 0 23 49 11 56 -6 4 -5 10 3 14 7 5 13 17 14 27 0 10 4 24
8 30 4 6 2 15 -4 19 -7 4 -9 3 -5 -4 3 -6 2 -13 -3 -17 -6 -3 -8 -12 -4 -20 3
-8 1 -15 -5 -15 -8 0 -9 28 -2 38 2 1 3 5 4 10 1 4 5 13 10 21 7 11 5 13 -7 8
-13 -5 -15 -2 -7 17 5 13 6 26 4 29 -3 3 -6 29 -8 58 -2 47 -5 54 -21 51 -17
-3 -17 -2 -4 14 10 13 10 16 1 10 -10 -6 -13 -2 -10 14 2 14 -3 25 -12 27 -13
4 -13 3 0 -6 8 -6 10 -11 4 -11 -19 0 -24 13 -11 28 6 9 7 13 2 10 -6 -4 -17
-3 -25 3 -8 5 -10 9 -4 9 6 0 11 6 11 14 0 8 -6 12 -14 9 -7 -3 -13 0 -13 7 0
6 -5 8 -10 5 -6 -4 -9 -3 -8 2 2 4 -1 9 -7 11 -15 5 -27 31 -20 42 4 6 -1 7
-11 3 -10 -3 -15 -2 -12 3 3 5 -1 16 -10 24 -14 13 -15 12 -9 -3 3 -9 2 -19
-4 -22 -5 -4 -9 -3 -8 2 4 22 -2 44 -10 39 -10 -7 -9 20 2 30 12 12 8 26 -5
18 -9 -6 -9 -3 1 9 7 9 11 24 7 32 -3 8 -2 15 3 15 4 0 6 11 3 25 -2 14 2 33
9 42 8 10 9 14 2 10 -6 -4 -15 -2 -19 4 -4 8 -3 9 4 5 7 -4 12 -2 12 4 0 6 4
9 9 5 5 -3 13 -1 16 5 4 6 3 10 -2 9 -4 -1 -15 -1 -23 0 -12 1 -12 3 -2 10 14
8 19 61 8 79 -3 6 -1 14 5 18 8 5 9 3 4 -6 -5 -9 -4 -11 4 -6 8 5 7 13 -3 28
-8 11 -12 27 -9 34 3 8 -1 22 -8 32 -11 14 -11 15 1 5 24 -22 31 -14 13 14
-10 15 -13 24 -6 20 6 -4 14 -3 18 3 3 5 0 10 -8 10 -8 0 -18 7 -21 16 -9 24
-7 31 5 11 6 -9 15 -15 20 -11 6 4 6 11 -1 19 -7 8 -9 19 -6 24 4 5 -2 14 -11
20 -10 6 -12 11 -5 11 6 0 12 8 12 18 0 14 -2 15 -10 2 -7 -11 -8 -5 -4 20 4
25 3 31 -4 21 -8 -11 -10 -8 -9 12 2 20 5 23 16 14 12 -10 12 -8 1 13 -8 14
-13 30 -12 37 1 6 -2 14 -8 18 -5 3 -10 12 -10 18 0 7 4 6 11 -3 9 -13 10 -13
6 1 -3 9 0 22 6 29 7 7 7 10 1 7 -6 -3 -18 2 -26 12 -12 15 -13 22 -5 31 9 10
9 11 0 6 -8 -4 -13 -1 -13 8 0 8 6 17 13 19 6 3 2 6 -11 6 -21 1 -22 2 -8 17
20 19 20 21 1 21 -8 0 -12 -4 -9 -9 3 -4 0 -8 -6 -8 -7 0 -10 6 -7 14 3 7 1
18 -5 24 -6 6 -6 12 1 16 6 4 11 13 11 19 0 7 -4 6 -11 -3 -8 -12 -10 -9 -6
12 3 20 0 25 -11 20 -12 -4 -14 1 -10 20 4 20 1 25 -10 21 -12 -5 -12 -2 -2
18 12 22 12 23 -4 10 -14 -12 -16 -12 -9 4 5 14 3 17 -10 12 -9 -3 -17 -2 -17
3 0 6 7 10 15 10 8 0 15 5 15 10 0 6 -3 9 -7 9 -20 -3 -34 2 -28 11 3 6 1 10
-6 10 -8 0 -9 3 0 13 13 16 5 27 -21 27 -11 0 -18 7 -18 19 0 11 -7 27 -16 35
-8 9 -12 21 -8 28 5 7 2 9 -8 6 -11 -5 -14 0 -12 18 1 13 -2 22 -7 18 -5 -3
-9 0 -9 7 0 9 -3 9 -14 0 -12 -10 -13 -8 -9 8 4 15 1 21 -11 21 -10 0 -14 5
-11 10 3 6 1 10 -5 10 -6 0 -8 5 -4 13 5 7 2 7 -10 -2 -9 -8 -16 -10 -15 -5 1
5 1 16 0 24 -1 13 -2 13 -11 0 -6 -10 -10 -11 -10 -2 0 6 -5 12 -11 12 -5 0
-7 -6 -3 -12 4 -7 -2 -5 -13 5 -11 9 -22 14 -26 11 -4 -4 -4 4 -2 16 3 18 2
21 -7 12 -14 -14 -32 -16 -23 -3 5 9 -33 6 -62 -4 -7 -2 -13 -1 -13 4 0 4 -7
8 -15 8 -8 0 -15 -5 -15 -10 0 -5 -7 -6 -16 -3 -8 3 -12 2 -9 -4 3 -6 -1 -7
-9 -4 -9 3 -14 9 -11 13 2 4 -2 8 -10 8 -8 0 -12 -4 -10 -8 3 -4 -2 -9 -9 -12
-15 -6 -15 20 0 46 5 7 0 6 -11 -3 -11 -9 -16 -10 -11 -2 4 7 2 12 -6 13 -7 0
-4 4 7 8 17 7 17 8 -8 15 -18 4 -27 13 -27 26 0 12 -7 20 -17 20 -15 0 -16 2
-3 10 13 8 12 10 -3 10 -11 0 -15 4 -11 12 5 8 2 9 -11 4 -14 -5 -16 -4 -6 8
9 11 8 15 -4 20 -9 3 -14 2 -10 -3 6 -11 -22 -8 -32 4 -4 4 -3 5 3 2 7 -4 15
0 18 9 9 23 7 31 -3 15 -8 -12 -12 -12 -25 -2 -9 8 -16 20 -16 29 0 8 -3 13
-6 9 -8 -8 -33 16 -27 26 2 4 0 7 -6 7 -5 0 -12 -6 -14 -12 -3 -8 -6 -5 -6 5
-1 12 -5 16 -13 11 -9 -5 -8 -2 1 9 12 15 12 17 -4 11 -13 -5 -16 -4 -11 4 9
15 -6 16 -21 1 -8 -8 -13 -7 -18 2 -5 8 -4 10 3 5 7 -4 12 -4 12 1 0 12 -20
39 -20 28 0 -5 -5 -3 -11 5 -8 12 -12 12 -16 2 -3 -9 -13 -2 -29 19 -13 18
-21 37 -17 42 3 6 1 7 -6 3 -6 -4 -9 -12 -6 -17 3 -5 -1 -6 -10 -3 -10 4 -15
14 -12 25 3 11 1 17 -4 13 -5 -3 -9 1 -9 8 0 10 -2 10 -9 -1 -6 -9 -10 -10
-16 -2 -5 9 -10 9 -20 1 -11 -9 -12 -7 -8 8 2 11 -1 23 -8 28 -9 5 -11 2 -6
-9 4 -11 2 -14 -9 -10 -8 3 -13 11 -11 18 3 6 -1 12 -9 12 -7 0 -11 -3 -9 -7
2 -4 -2 -7 -10 -7 -8 0 -14 3 -13 6 0 3 0 13 -2 21 -1 11 -4 9 -10 -5 -8 -19
-9 -19 -9 3 -1 12 -6 22 -12 22 -5 0 -8 -4 -5 -8 3 -5 -1 -9 -9 -9 -8 0 -11 5
-8 10 4 6 0 8 -11 4 -14 -5 -15 -3 -6 12 9 17 6 18 -26 14 -44 -6 -70 12 -52
36 12 14 11 14 -4 2 -10 -7 -18 -10 -18 -6 0 4 -6 2 -14 -4 -11 -9 -16 -9 -22
0 -5 8 -3 9 6 4 8 -5 11 -4 6 3 -4 6 -13 9 -20 6 -7 -3 -18 2 -25 10 -7 8 -19
12 -28 9 -8 -3 -19 0 -24 8 -7 12 -9 12 -9 0 0 -10 -3 -11 -14 -2 -11 9 -15 9
-19 -1 -4 -8 -6 -7 -6 5 -1 9 -6 17 -12 17 -6 0 -8 -7 -5 -16 5 -14 4 -15 -9
-4 -8 7 -12 17 -8 23 4 6 1 7 -6 3 -7 -5 -10 -15 -7 -25 5 -12 3 -12 -9 3 -8
10 -12 23 -9 27 3 5 -2 6 -10 3 -9 -3 -13 -10 -10 -15 3 -5 1 -9 -5 -9 -5 0
-11 5 -13 12 -6 18 -48 17 -49 -1 0 -10 -4 -8 -9 7 -5 12 -12 22 -15 22 -4 0
-3 -4 0 -10 3 -5 0 -10 -9 -10 -8 0 -17 6 -19 13 -4 10 -6 10 -6 0 -1 -7 -6
-13 -12 -13 -5 0 -7 6 -3 13 6 9 4 9 -8 -1 -14 -11 -18 -10 -28 5 -10 16 -11
16 -6 1 3 -10 0 -20 -6 -24 -6 -4 -8 -3 -4 4 3 6 2 13 -3 16 -5 4 -13 1 -17
-5 -5 -9 -11 -6 -21 7 -14 19 -15 19 -29 0 -13 -18 -19 -13 -16 15 1 8 -45 5
-54 -4 -4 -4 -14 -1 -22 6 -9 6 -13 7 -10 2 4 -6 3 -17 -3 -25 -7 -12 -9 -9
-10 10 l-1 25 -8 -25 c-6 -18 -8 -20 -9 -7 -1 10 -5 16 -10 13 -5 -4 -12 0
-15 6 -3 7 -3 2 0 -12z m132 -11 c3 -11 2 -12 -6 -1 -13 19 -17 19 -35 4 -12
-10 -17 -10 -23 -1 -4 7 -3 9 4 5 6 -3 13 -2 16 3 9 14 39 7 44 -10z m46 -5
c3 -8 2 -12 -4 -9 -6 3 -10 10 -10 16 0 14 7 11 14 -7z m-639 -54 c-3 -5 -1
-10 6 -10 7 0 10 -3 6 -6 -9 -9 -28 6 -22 17 4 5 8 9 11 9 3 0 2 -4 -1 -10z
m1060 0 c3 -5 1 -10 -4 -10 -6 0 -11 5 -11 10 0 6 2 10 4 10 3 0 8 -4 11 -10z
m-2068 -675 c0 -8 -4 -12 -9 -9 -5 3 -6 10 -3 15 9 13 12 11 12 -6z m-7 -29
c0 -2 -7 -7 -16 -10 -8 -3 -12 -2 -9 4 6 10 25 14 25 6z m3245 -16 c3 -5 1
-10 -4 -10 -6 0 -11 5 -11 10 0 6 2 10 4 10 3 0 8 -4 11 -10z m95 -124 c0 -2
-7 -7 -16 -10 -8 -3 -12 -2 -9 4 6 10 25 14 25 6z m-3425 -16 c-3 -5 -11 -10
-16 -10 -6 0 -7 5 -4 10 3 6 11 10 16 10 6 0 7 -4 4 -10z m3566 -357 c13 -16
12 -17 -3 -4 -17 13 -22 21 -14 21 2 0 10 -8 17 -17z m204 -1011 c-3 -3 -11 0
-18 7 -9 10 -8 11 6 5 10 -3 15 -9 12 -12z m-3825 -288 c0 -8 -19 -13 -24 -6
-3 5 1 9 9 9 8 0 15 -2 15 -3z m400 -328 c0 -2 -7 -7 -16 -10 -8 -3 -12 -2 -9
4 6 10 25 14 25 6z m2275 -916 c-10 -11 -20 -18 -22 -16 -6 5 30 44 36 39 2
-1 -4 -12 -14 -23z m196 -277 c13 -17 13 -17 -6 -3 -11 8 -22 16 -24 17 -2 2
0 3 6 3 6 0 17 -8 24 -17z m-64 1 c-3 -3 -12 -4 -19 -1 -8 3 -5 6 6 6 11 1 17
-2 13 -5z m-2053 -30 c3 -8 2 -12 -4 -9 -6 3 -10 10 -10 16 0 14 7 11 14 -7z
m-79 -24 c-3 -5 -11 -10 -16 -10 -6 0 -7 5 -4 10 3 6 11 10 16 10 6 0 7 -4 4
-10z m-295 -244 c0 -3 -4 -8 -10 -11 -5 -3 -10 -1 -10 4 0 6 5 11 10 11 6 0
10 -2 10 -4z m3220 -300 c0 -2 -7 -7 -16 -10 -8 -3 -12 -2 -9 4 6 10 25 14 25
6z m-3392 -131 c-3 -3 -9 2 -12 12 -6 14 -5 15 5 6 7 -7 10 -15 7 -18z m-1
-271 c-3 -3 -12 -4 -19 -1 -8 3 -5 6 6 6 11 1 17 -2 13 -5z m3413 -38 c0 -3
-4 -8 -10 -11 -5 -3 -10 -1 -10 4 0 6 5 11 10 11 6 0 10 -2 10 -4z m-3420 -56
c0 -5 -2 -10 -4 -10 -3 0 -8 5 -11 10 -3 6 -1 10 4 10 6 0 11 -4 11 -10z
m-155 -80 c3 -6 -1 -7 -9 -4 -18 7 -21 14 -7 14 6 0 13 -4 16 -10z m-444 -103
c-10 -9 -11 -8 -5 6 3 10 9 15 12 12 3 -3 0 -11 -7 -18z m-157 -55 c3 -5 -1
-9 -9 -9 -8 0 -12 4 -9 9 3 4 7 8 9 8 2 0 6 -4 9 -8z m4876 -292 c0 -5 -2 -10
-4 -10 -3 0 -8 5 -11 10 -3 6 -1 10 4 10 6 0 11 -4 11 -10z m-4320 -361 c0 -4
-6 -9 -13 -12 -8 -3 -14 0 -14 7 0 7 6 13 14 13 7 0 13 -4 13 -8z m23 -4 c-3
-9 -8 -14 -10 -11 -3 3 -2 9 2 15 9 16 15 13 8 -4z m457 4 c0 -4 -6 -9 -13
-12 -8 -3 -14 0 -14 7 0 7 6 13 14 13 7 0 13 -4 13 -8z m23 -4 c-3 -9 -8 -14
-10 -11 -3 3 -2 9 2 15 9 16 15 13 8 -4z m111 3 c-3 -4 -11 -5 -19 -1 -21 7
-19 12 4 10 11 0 18 -5 15 -9z m146 2 c0 -5 -5 -10 -11 -10 -5 0 -7 5 -4 10 3
6 8 10 11 10 2 0 4 -4 4 -10z m200 -1 c0 -4 -6 -9 -13 -12 -8 -3 -14 0 -14 7
0 7 6 13 14 13 7 0 13 -4 13 -8z m23 -4 c-3 -9 -8 -14 -10 -11 -3 3 -2 9 2 15
9 16 15 13 8 -4z m457 4 c0 -4 -6 -9 -13 -12 -8 -3 -14 0 -14 7 0 7 6 13 14
13 7 0 13 -4 13 -8z m23 -4 c-3 -9 -8 -14 -10 -11 -3 3 -2 9 2 15 9 16 15 13
8 -4z m111 3 c-3 -4 -11 -5 -19 -1 -21 7 -19 12 4 10 11 0 18 -5 15 -9z m146
2 c0 -5 -5 -10 -11 -10 -5 0 -7 5 -4 10 3 6 8 10 11 10 2 0 4 -4 4 -10z m217
-12 c-3 -8 -6 -5 -6 6 -1 11 2 17 5 13 3 -3 4 -12 1 -19z m463 11 c0 -4 -6 -9
-13 -12 -8 -3 -14 0 -14 7 0 7 6 13 14 13 7 0 13 -4 13 -8z m23 -4 c-3 -9 -8
-14 -10 -11 -3 3 -2 9 2 15 9 16 15 13 8 -4z m1898 -2 c13 -16 12 -17 -3 -4
-10 7 -18 15 -18 17 0 8 8 3 21 -13z"/>
<path d="M2366 6153 c-6 -14 -5 -15 5 -6 7 7 10 15 7 18 -3 3 -9 -2 -12 -12z"/>
<path d="M1963 5975 c0 -8 4 -12 9 -9 5 3 6 10 3 15 -9 13 -12 11 -12 -6z"/>
<path d="M3980 5977 c0 -2 6 -10 14 -16 11 -9 16 -9 22 1 4 7 4 10 -1 6 -4 -4
-14 -3 -22 3 -7 6 -13 9 -13 6z"/>
<path d="M1606 5693 c-6 -14 -5 -15 5 -6 7 7 10 15 7 18 -3 3 -9 -2 -12 -12z"/>
<path d="M4570 5591 c0 -6 4 -13 10 -16 6 -3 7 1 4 9 -7 18 -14 21 -14 7z"/>
<path d="M1335 5280 c-3 -5 -1 -10 4 -10 6 0 11 5 11 10 0 6 -2 10 -4 10 -3 0
-8 -4 -11 -10z"/>
<path d="M1310 5155 c-11 -13 -10 -14 4 -9 9 3 16 10 16 15 0 13 -6 11 -20 -6z"/>
<path d="M1268 3793 c7 -3 16 -2 19 1 4 3 -2 6 -13 5 -11 0 -14 -3 -6 -6z"/>
<path d="M5150 3619 c0 -5 5 -7 10 -4 6 3 10 8 10 11 0 2 -4 4 -10 4 -5 0 -10
-5 -10 -11z"/>
<path d="M5115 3560 c3 -5 8 -10 11 -10 2 0 4 5 4 10 0 6 -5 10 -11 10 -5 0
-7 -4 -4 -10z"/>
<path d="M4795 3330 c-3 -5 -1 -10 4 -10 6 0 11 5 11 10 0 6 -2 10 -4 10 -3 0
-8 -4 -11 -10z"/>
<path d="M2163 2645 c0 -8 4 -12 9 -9 5 3 6 10 3 15 -9 13 -12 11 -12 -6z"/>
<path d="M4130 2505 c-11 -13 -10 -14 4 -9 9 3 16 10 16 15 0 13 -6 11 -20 -6z"/>
<path d="M4049 2443 c-13 -16 -12 -17 4 -4 9 7 17 15 17 17 0 8 -8 3 -21 -13z"/>
<path d="M2235 2160 c-3 -5 -1 -10 4 -10 6 0 11 5 11 10 0 6 -2 10 -4 10 -3 0
-8 -4 -11 -10z"/>
<path d="M4230 2156 c7 -7 13 -7 20 0 6 6 3 10 -10 10 -13 0 -16 -4 -10 -10z"/>
<path d="M4536 2055 c4 -8 8 -15 10 -15 2 0 4 7 4 15 0 8 -4 15 -10 15 -5 0
-7 -7 -4 -15z"/>
<path d="M1545 1600 c-3 -5 -3 -10 2 -10 4 0 1 -5 -7 -11 -12 -8 -12 -10 -1
-7 8 2 15 12 17 21 3 19 -2 22 -11 7z"/>
<path d="M1500 1365 c0 -5 5 -17 10 -25 5 -8 10 -10 10 -5 0 6 -5 17 -10 25
-5 8 -10 11 -10 5z"/>
<path d="M1500 1179 c0 -5 5 -7 10 -4 6 3 10 8 10 11 0 2 -4 4 -10 4 -5 0 -10
-5 -10 -11z"/>
<path d="M850 142 c0 -12 3 -12 15 -2 8 7 15 13 15 15 0 1 -7 2 -15 2 -8 0
-15 -7 -15 -15z"/>
<path d="M1010 144 c0 -8 5 -12 10 -9 6 4 8 11 5 16 -9 14 -15 11 -15 -7z"/>
<path d="M1537 153 c-12 -11 -8 -19 13 -20 11 -1 23 3 26 9 5 7 2 8 -6 3 -7
-4 -15 -2 -19 4 -4 6 -10 8 -14 4z"/>
<path d="M2497 153 c-12 -11 -8 -19 13 -20 11 -1 23 3 26 9 5 7 2 8 -6 3 -7
-4 -15 -2 -19 4 -4 6 -10 8 -14 4z"/>
<path d="M3457 153 c-12 -11 -8 -19 13 -20 11 -1 23 3 26 9 5 7 2 8 -6 3 -7
-4 -15 -2 -19 4 -4 6 -10 8 -14 4z"/>
<path d="M3890 144 c0 -8 5 -12 10 -9 6 4 8 11 5 16 -9 14 -15 11 -15 -7z"/>
<path d="M4210 144 c0 -8 5 -12 10 -9 6 4 8 11 5 16 -9 14 -15 11 -15 -7z"/>
<path d="M4530 144 c0 -8 5 -12 10 -9 6 4 8 11 5 16 -9 14 -15 11 -15 -7z"/>
<path d="M4850 144 c0 -8 5 -12 10 -9 6 4 8 11 5 16 -9 14 -15 11 -15 -7z"/>
<path d="M5170 144 c0 -8 5 -12 10 -9 6 4 8 11 5 16 -9 14 -15 11 -15 -7z"/>
<path d="M5490 144 c0 -8 5 -12 10 -9 6 4 8 11 5 16 -9 14 -15 11 -15 -7z"/>
<path d="M1487 139 c7 -7 15 -10 18 -7 3 3 -2 9 -12 12 -14 6 -15 5 -6 -5z"/>
<path d="M2010 142 c0 -5 7 -9 15 -9 8 0 12 4 9 9 -7 10 -24 10 -24 0z"/>
<path d="M2130 142 c0 -5 7 -9 15 -9 8 0 12 4 9 9 -7 10 -24 10 -24 0z"/>
<path d="M2447 139 c7 -7 15 -10 18 -7 3 3 -2 9 -12 12 -14 6 -15 5 -6 -5z"/>
<path d="M2970 142 c0 -5 7 -9 15 -9 8 0 12 4 9 9 -7 10 -24 10 -24 0z"/>
<path d="M3090 142 c0 -4 10 -9 22 -9 18 -2 20 0 8 7 -18 12 -30 13 -30 2z"/>
<path d="M3300 146 c0 -2 8 -10 18 -17 15 -13 16 -12 3 4 -13 16 -21 21 -21
13z"/>
<path d="M3407 139 c7 -7 15 -10 18 -7 3 3 -2 9 -12 12 -14 6 -15 5 -6 -5z"/>
</g>
</svg>
